<svg width="10" height="11" viewBox="0 0 10 11" fill="none" xmlns="http://www.w3.org/2000/svg">
<path d="M4.886 10.112C4.186 10.112 3.57 9.99067 3.038 9.748C2.51533 9.496 2.07667 9.15067 1.722 8.712C1.36733 8.27333 1.09667 7.76 0.91 7.172C0.732667 6.57467 0.644 5.926 0.644 5.226C0.644 4.526 0.732667 3.87733 0.91 3.28C1.09667 2.67333 1.36733 2.15067 1.722 1.712C2.07667 1.27333 2.52 0.932666 3.052 0.69C3.584 0.438 4.19533 0.312 4.886 0.312C5.56733 0.312 6.16933 0.438 6.692 0.69C7.21467 0.932666 7.65333 1.27333 8.008 1.712C8.372 2.15067 8.64733 2.67333 8.834 3.28C9.02067 3.87733 9.114 4.526 9.114 5.226C9.114 5.926 9.02067 6.57467 8.834 7.172C8.64733 7.76 8.372 8.27333 8.008 8.712C7.65333 9.15067 7.21467 9.496 6.692 9.748C6.16933 9.99067 5.56733 10.112 4.886 10.112ZM4.886 1.012C4.298 1.012 3.78933 1.124 3.36 1.348C2.93067 1.56267 2.57133 1.86133 2.282 2.244C2.002 2.62667 1.792 3.07467 1.652 3.588C1.512 4.10133 1.442 4.64733 1.442 5.226C1.442 5.80467 1.51667 6.346 1.666 6.85C1.81533 7.354 2.03467 7.79733 2.324 8.18C2.62267 8.55333 2.98667 8.852 3.416 9.076C3.84533 9.29067 4.33533 9.398 4.886 9.398C5.45533 9.398 5.95467 9.29067 6.384 9.076C6.81333 8.852 7.17267 8.55333 7.462 8.18C7.75133 7.79733 7.966 7.354 8.106 6.85C8.246 6.346 8.316 5.80467 8.316 5.226C8.316 4.64733 8.24133 4.10133 8.092 3.588C7.94267 3.07467 7.72333 2.62667 7.434 2.244C7.154 1.86133 6.79933 1.56267 6.37 1.348C5.94067 1.124 5.446 1.012 4.886 1.012ZM4.942 2.412C5.15667 2.412 5.362 2.44467 5.558 2.51C5.754 2.57533 5.922 2.67333 6.062 2.804C6.21133 2.93467 6.32333 3.09333 6.398 3.28C6.482 3.46667 6.51933 3.686 6.51 3.938L5.74 4.12C5.74933 3.82133 5.67933 3.58333 5.53 3.406C5.39 3.22867 5.18467 3.14 4.914 3.14C4.68067 3.14 4.48933 3.21933 4.34 3.378C4.2 3.52733 4.13 3.7 4.13 3.896V6.822C4.13 7.02733 4.20467 7.2 4.354 7.34C4.50333 7.48 4.69 7.55 4.914 7.55C5.18467 7.55 5.38533 7.47533 5.516 7.326C5.64667 7.16733 5.72133 6.92 5.74 6.584L6.51 6.724C6.51 7.27467 6.356 7.676 6.048 7.928C5.74933 8.17067 5.38067 8.292 4.942 8.292C4.72733 8.292 4.522 8.25933 4.326 8.194C4.13 8.12867 3.95733 8.03067 3.808 7.9C3.668 7.76933 3.556 7.606 3.472 7.41C3.388 7.214 3.346 6.98533 3.346 6.724V3.966C3.346 3.47133 3.49533 3.08867 3.794 2.818C4.102 2.54733 4.48467 2.412 4.942 2.412Z" fill="#614D49"/>
</svg>
